<?xml version="1.0" standalone="no"?>
<!DOCTYPE svg PUBLIC "-//W3C//DTD SVG 20010904//EN"
 "http://www.w3.org/TR/2001/REC-SVG-20010904/DTD/svg10.dtd">
<svg version="1.0" xmlns="http://www.w3.org/2000/svg"
 width="306px" height="120px" viewBox="0 0 225.000000 225.000000"
 preserveAspectRatio="xMidYMid meet">

<g transform="translate(0.000000,225.000000) scale(0.100000,-0.100000)"
fill="#000000" stroke="none">
<path d="M0 1125 l0 -1125 1125 0 1125 0 0 1125 0 1125 -1125 0 -1125 0 0
-1125z m1560 700 c0 -3 -11 -22 -23 -43 -13 -20 -29 -48 -36 -62 -11 -22 -9
-21 17 7 l30 31 10 -58 c6 -33 17 -71 25 -86 l14 -28 38 57 c21 31 39 57 41
57 1 0 17 -45 34 -100 32 -98 44 -117 53 -82 3 9 5 -1 6 -23 2 -54 8 -62 73
-84 65 -22 104 -46 112 -68 15 -38 35 -292 26 -324 -6 -19 -10 -35 -10 -36 0
-2 27 -3 61 -3 l61 0 -27 -48 c-38 -65 -72 -100 -112 -113 -38 -12 -96 -5
-127 17 -27 19 -51 18 -83 -3 -19 -12 -28 -14 -30 -6 -3 7 -23 -7 -46 -31 -33
-34 -53 -46 -95 -55 -29 -6 -64 -11 -77 -11 -30 0 -80 -59 -101 -120 -35 -102
-54 -128 -112 -157 -49 -24 -68 -27 -156 -28 -89 0 -108 3 -158 27 -60 28 -78
51 -103 136 -8 25 -29 67 -47 94 -26 37 -39 48 -60 48 -72 0 -131 22 -174 65
-24 24 -45 38 -47 32 -2 -8 -12 -6 -30 6 -33 21 -51 21 -84 0 -38 -25 -124
-24 -160 3 -26 19 -101 119 -102 137 -1 4 26 7 59 7 33 0 60 1 60 3 0 1 -5 18
-10 37 -10 32 -6 89 16 277 6 54 33 79 114 110 35 13 68 29 72 36 4 7 8 30 9
52 1 22 3 32 6 23 2 -10 8 -18 13 -18 8 0 60 154 60 177 0 30 21 19 50 -27 18
-28 34 -49 35 -48 3 4 14 105 15 132 0 18 2 18 27 -5 l26 -24 -23 40 c-13 22
-30 50 -38 63 l-14 22 461 0 c253 0 461 -2 461 -5z"/>
<path d="M729 1756 c16 -25 21 -49 21 -102 l-1 -69 -22 28 -23 27 -12 -57 c-7
-32 -20 -74 -29 -93 l-15 -35 -13 46 c-7 26 -20 57 -29 70 l-16 24 -7 -25 c-4
-14 -24 -60 -46 -103 -31 -63 -50 -87 -97 -124 -54 -42 -88 -93 -75 -113 8
-12 -24 -82 -35 -75 -4 3 -12 -20 -16 -52 -6 -49 -4 -63 17 -101 22 -43 23
-45 4 -58 -10 -8 -34 -14 -52 -14 -41 0 -42 -11 -2 -44 37 -32 81 -34 127 -6
35 21 68 25 91 11 11 -7 25 -1 48 20 19 16 38 29 42 29 9 0 42 -72 35 -79 -2
-2 -10 2 -19 9 -30 25 -26 2 5 -34 34 -38 80 -56 145 -56 46 0 102 -27 123
-59 13 -19 13 -21 -3 -15 -15 6 -15 3 4 -32 12 -21 31 -65 42 -98 19 -52 26
-60 68 -79 36 -17 66 -21 141 -22 132 0 167 17 198 100 12 33 32 78 44 100 16
31 18 37 5 26 -21 -17 -22 -2 -1 27 22 32 45 41 129 52 84 11 128 31 144 67
15 33 14 35 -9 23 -25 -14 -25 -4 0 38 22 36 37 34 74 -7 14 -15 23 -18 37
-11 27 15 55 12 91 -10 18 -11 46 -20 61 -20 47 0 97 34 97 66 0 2 -15 4 -33
4 -18 0 -42 6 -52 14 -19 14 -19 15 3 54 12 22 22 53 22 70 0 45 -11 92 -21
86 -11 -6 -37 55 -36 88 0 34 -18 57 -80 106 -39 32 -61 60 -92 123 -23 45
-41 90 -41 100 0 47 -36 0 -55 -71 l-13 -45 -34 75 c-19 41 -39 86 -43 100 -7
23 -10 20 -30 -33 -11 -32 -24 -54 -28 -51 -14 14 -8 189 8 210 8 10 15 22 15
27 0 4 -176 7 -391 7 l-391 0 21 -34z m98 -56 c-6 -48 -5 -50 15 -39 17 9 19
18 15 50 -5 36 -3 39 20 39 19 0 24 -4 19 -16 -3 -9 -7 -73 -7 -142 -1 -70 -4
-116 -6 -102 -6 35 -26 53 -22 20 2 -14 0 -25 -5 -25 -5 0 -8 29 -7 64 2 49
-1 62 -11 59 -9 -3 -13 -23 -13 -61 0 -55 -1 -56 -18 -38 -15 15 -19 37 -20
129 -2 112 -2 112 22 112 23 0 24 -2 18 -50z m138 40 c-4 -6 -3 -25 1 -43 l7
-32 9 30 c4 17 6 36 3 43 -3 7 5 12 20 12 30 0 30 -2 5 -92 -11 -40 -21 -102
-21 -138 -1 -36 -3 -57 -6 -47 -5 20 -19 22 -26 5 -3 -7 -6 19 -6 57 -1 39
-10 103 -20 143 l-18 72 29 0 c17 0 27 -4 23 -10z m192 -115 c1 -66 -1 -114
-3 -107 -3 6 -12 12 -20 12 -11 0 -14 18 -14 80 0 64 -3 80 -15 80 -12 0 -15
-17 -15 -93 0 -80 -3 -95 -20 -110 -20 -17 -20 -16 -20 124 l0 140 53 -3 52
-3 2 -120z m128 70 c5 -37 3 -60 -4 -69 -8 -10 -9 -16 -1 -21 6 -3 9 -37 8
-78 -1 -56 -2 -61 -5 -24 -2 26 -9 47 -15 47 -6 0 -9 -18 -6 -45 2 -25 0 -45
-4 -45 -5 0 -8 27 -8 61 0 84 -23 75 -31 -12 -5 -61 -6 -62 -7 -14 -2 50 -16
53 -25 5 -2 -14 -5 30 -6 97 0 67 -4 128 -7 137 -5 13 3 16 49 16 l56 0 6 -55z
m135 -58 c0 -107 -7 -137 -32 -137 -4 0 -8 28 -8 62 0 61 0 62 -16 39 -13 -17
-15 -36 -11 -77 3 -33 2 -54 -4 -54 -6 0 -8 3 -6 8 3 4 1 27 -3 52 l-7 45 -2
-54 c-2 -91 -10 -52 -16 80 -4 68 -8 130 -10 137 -3 9 12 12 55 12 l60 0 0
-113z m-900 -437 c0 -12 -28 -25 -36 -17 -9 9 6 27 22 27 8 0 14 -5 14 -10z
m1248 -7 c5 -18 -23 -16 -39 3 -11 14 -10 15 11 12 13 -1 25 -9 28 -15z m-447
-30 c-12 -20 -14 -14 -5 12 4 9 9 14 11 11 3 -2 0 -13 -6 -23z m-801 -125 c-1
-15 -70 -50 -70 -36 0 5 -4 6 -10 3 -17 -11 -11 7 7 21 13 8 22 9 30 2 9 -7
15 -6 19 6 7 19 24 21 24 4z m1230 1 c0 -5 10 -9 23 -7 16 2 23 -3 25 -19 3
-21 3 -21 -32 -5 -33 16 -49 42 -26 42 6 0 10 -5 10 -11z m-1324 -91 c-18 -28
-56 -48 -89 -48 -18 1 -17 3 9 14 17 8 41 28 54 46 27 38 51 27 26 -12z m1427
6 c11 -15 34 -32 51 -40 l31 -13 -31 -1 c-32 0 -94 45 -94 69 0 19 22 12 43
-15z m-823 -34 c7 -13 7 -20 1 -20 -6 0 -15 9 -21 20 -7 13 -7 20 -1 20 6 0
15 -9 21 -20z m210 0 c-11 -20 -30 -28 -30 -12 0 11 22 32 32 32 5 0 4 -9 -2
-20z m-240 -194 c0 -3 -4 -8 -10 -11 -5 -3 -10 -1 -10 4 0 6 5 11 10 11 6 0
10 -2 10 -4z m270 -6 c0 -5 -2 -10 -4 -10 -3 0 -8 5 -11 10 -3 6 -1 10 4 10 6
0 11 -4 11 -10z m-243 -82 c-3 -8 -6 -5 -6 6 -1 11 2 17 5 13 3 -3 4 -12 1
-19z m200 0 c-3 -8 -6 -5 -6 6 -1 11 2 17 5 13 3 -3 4 -12 1 -19z m-227 -8 c0
-5 -5 -10 -11 -10 -5 0 -7 5 -4 10 3 6 8 10 11 10 2 0 4 -4 4 -10z"/>
<path d="M802 1545 c0 -16 2 -22 5 -12 2 9 2 23 0 30 -3 6 -5 -1 -5 -18z"/>
<path d="M860 1560 c0 -5 5 -10 10 -10 6 0 10 5 10 10 0 6 -4 10 -10 10 -5 0
-10 -4 -10 -10z"/>
<path d="M960 1525 c0 -8 5 -15 10 -15 6 0 10 7 10 15 0 8 -4 15 -10 15 -5 0
-10 -7 -10 -15z"/>
<path d="M1060 1515 c0 -8 5 -15 10 -15 6 0 10 7 10 15 0 8 -4 15 -10 15 -5 0
-10 -7 -10 -15z"/>
<path d="M1220 1660 c0 -20 5 -30 15 -30 10 0 15 10 15 30 0 20 -5 30 -15 30
-10 0 -15 -10 -15 -30z"/>
<path d="M1357 1703 c-4 -3 -7 -17 -7 -31 0 -21 2 -22 15 -12 8 7 15 21 15 31
0 19 -11 25 -23 12z"/>
<path d="M1390 1559 c0 -24 4 -38 10 -34 6 3 10 22 10 41 0 19 -4 34 -10 34
-5 0 -10 -18 -10 -41z"/>
<path d="M371 1371 c-41 -22 -61 -55 -60 -101 l1 -35 8 34 c4 18 27 53 51 77
48 49 48 51 0 25z"/>
<path d="M1879 1347 c23 -24 47 -60 51 -78 l8 -34 1 33 c2 58 -23 89 -94 120
-5 3 10 -16 34 -41z"/>
</g>
</svg>
